<svg width="25" height="30" viewBox="0 0 25 30" fill="none" xmlns="http://www.w3.org/2000/svg">
<path d="M20.1214 15.898C20.0812 12.2542 23.1299 10.4787 23.277 10.3992C21.5521 7.9082 18.8778 7.5637 17.9418 7.5372C15.6955 7.2987 13.516 8.8622 12.3794 8.8622C11.2161 8.8622 9.45113 7.55045 7.55241 7.5902C5.10548 7.62995 2.819 9.03445 1.57548 11.2075C-1.00516 15.6462 0.920291 22.1652 3.39397 25.7559C4.63749 27.5182 6.08158 29.4792 7.98029 29.3997C9.83889 29.3202 10.5342 28.2337 12.7672 28.2337C14.9868 28.2337 15.6286 29.3997 17.5675 29.3599C19.5598 29.3334 20.8167 27.5977 22.0067 25.8222C23.4374 23.8082 24.0124 21.8207 24.0391 21.728C23.9723 21.7147 20.1615 20.2704 20.1214 15.898Z" fill="white"/>
<path d="M16.4694 5.17857C17.4722 3.94632 18.1541 2.26357 17.9536 0.554321C16.5095 0.620571 14.7044 1.54807 13.6614 2.75382C12.7388 3.81382 11.9231 5.56282 12.1371 7.20582C13.755 7.32507 15.4264 6.39757 16.4694 5.17857Z" fill="white"/>
</svg>
